# xmcd
#
# Track frame offsets:
#	180
#	23185
#	36539
#	52438
#	72153
#	90137
#	106341
#	126534
#	143263
#	160435
#	177673
#	197840
#	217179
#	230451
#	245294
#
# Disc length: 3505 seconds
#
# Revision: 1
# Processed by: cddbd v1.5.1PL0 Copyright (c) Steve Scherf et al.
# Submitted via: audiograbber 1.82.02
#
DISCID=e00daf0f
DTITLE=Various Artist - Sound Choice 8120 Country Hits Vol 8
DYEAR=1900
DGENRE=Karaoke
TTITLE0=Patty Loveless  - How can I help you say goodbye
TTITLE1=Shenendoah - If Bubba Can dance ( I can too )
TTITLE2=Randy Travis - Before you kill us all
TTITLE3=John Michael Montgomery - Rope the moon
TTITLE4=Pam Tillis - Spilled Perfume
TTITLE5=Brooks and Dunn - That ain't no way to go
TTITLE6=Vince Gill - Whenever you come around
TTITLE7=Reba McEntire - Why haven't I heard from you
TTITLE8=Kathy Mattea - Walking away a winner
TTITLE9=Joe Diffie - In my own Backyard
TTITLE10=Travis Tritt - Foolish Pride
TTITLE11=Tim McGraw - Don't take the girl
TTITLE12=John Michael Montgomery - Be my baby tonight
TTITLE13=Mark Chesnutt - Woman, sensous woman
TTITLE14=Confederate Railroad - Daddy never was the Cadilac kind
EXTD=
EXTT0=
EXTT1=
EXTT2=
EXTT3=
EXTT4=
EXTT5=
EXTT6=
EXTT7=
EXTT8=
EXTT9=
EXTT10=
EXTT11=
EXTT12=
EXTT13=
EXTT14=
PLAYORDER=
